HIERARCHY
ROOT RootJoint
{
    OFFSET   0.000000   0.000000   0.000000
    CHANNELS 6 Xposition Yposition Zposition Xrotation Yrotation Zrotation
    JOINT pelvis_lowerback
    {
        OFFSET   0.000000   0.093605   0.000000
        CHANNELS 3 Xrotation Yrotation Zrotation
        JOINT lowerback_torso
        {
            OFFSET   0.000000   0.100000   0.000000
            CHANNELS 3 Xrotation Yrotation Zrotation
            JOINT torso_head
            {
                OFFSET   0.000000   0.282350   0.000000
                CHANNELS 3 Xrotation Yrotation Zrotation
                End Site
                {
                    OFFSET   0.000000   0.192650   0.000000
                }
            }
            JOINT rTorso_Clavicle
            {
                OFFSET  -0.001000   0.157500   0.000000
                CHANNELS 3 Xrotation Yrotation Zrotation
                JOINT rShoulder
                {
                    OFFSET  -0.117647   0.000000   0.000000
                    CHANNELS 3 Xrotation Yrotation Zrotation
                    JOINT rElbow
                    {
                        OFFSET  -0.245000   0.000000   0.000000
                        CHANNELS 3 Xrotation Yrotation Zrotation
                        JOINT rWrist
                        {
                            OFFSET  -0.240000   0.000000   0.000000
                            CHANNELS 3 Xrotation Yrotation Zrotation
                            End Site
                            {
                                OFFSET  -0.116353  -0.002500   0.000000
                            }
                        }
                    }
                }
            }
            JOINT lTorso_Clavicle
            {
                OFFSET   0.001000   0.157500   0.000000
                CHANNELS 3 Xrotation Yrotation Zrotation
                JOINT lShoulder
                {
                    OFFSET   0.117647   0.000000   0.000000
                    CHANNELS 3 Xrotation Yrotation Zrotation
                    JOINT lElbow
                    {
                        OFFSET   0.245000   0.000000   0.000000
                        CHANNELS 3 Xrotation Yrotation Zrotation
                        JOINT lWrist
                        {
                            OFFSET   0.240000   0.000000   0.000000
                            CHANNELS 3 Xrotation Yrotation Zrotation
                            End Site
                            {
                                OFFSET   0.116353  -0.002500   0.000000
                            }
                        }
                    }
                }
            }
        }
    }
    JOINT rHip
    {
        OFFSET  -0.100000  -0.051395   0.000000
        CHANNELS 3 Xrotation Yrotation Zrotation
        JOINT rKnee
        {
            OFFSET   0.000000  -0.410000   0.000000
            CHANNELS 3 Xrotation Yrotation Zrotation
            JOINT rAnkle
            {
                OFFSET   0.000000  -0.390000   0.000000
                CHANNELS 3 Xrotation Yrotation Zrotation
                JOINT rToeJoint
                {
                    OFFSET   0.000000  -0.050000   0.130000
                    CHANNELS 3 Xrotation Yrotation Zrotation
                    End Site
                    {
                        OFFSET  -0.010000   0.002000   0.060000
                    }
                }
            }
        }
    }
    JOINT lHip
    {
        OFFSET   0.100000  -0.051395   0.000000
        CHANNELS 3 Xrotation Yrotation Zrotation
        JOINT lKnee
        {
            OFFSET   0.000000  -0.410000   0.000000
            CHANNELS 3 Xrotation Yrotation Zrotation
            JOINT lAnkle
            {
                OFFSET   0.000000  -0.390000   0.000000
                CHANNELS 3 Xrotation Yrotation Zrotation
                JOINT lToeJoint
                {
                    OFFSET   0.000000  -0.050000   0.130000
                    CHANNELS 3 Xrotation Yrotation Zrotation
                    End Site
                    {
                        OFFSET   0.010000   0.002000   0.060000
                    }
                }
            }
        }
    }
}
MOTION
Frames: 15
Frame Time:   0.008333
 -2.376719   0.925631   3.975860   0.000000   0.000000   0.000000   0.000000   0.000000   0.000000   0.000000   0.000000   0.000000   0.000000   0.000000   0.000000   0.000000   0.000000   0.000000   0.000000   0.000000   0.000000   0.000000   0.000000   0.000000   0.000000   0.000000   0.000000   0.000000   0.000000   0.000000   0.000000   0.000000   0.000000   0.000000   0.000000   0.000000   0.000000   0.000000   0.000000   0.000000   0.000000   0.000000   0.000000   0.000000   0.000000   0.000000   0.000000   0.000000   0.000000   0.000000   0.000000   0.000000   0.000000   0.000000   0.000000   0.000000   0.000000   0.000000   0.000000   0.000000   0.000000   0.000000   0.000000
 -2.377272   0.925798   3.974099   1.906764  -0.134156  -0.293018  -2.010390   0.110021   0.135794   0.211924  -0.226455   0.159458  -0.194261   0.183889   0.034259   0.432839  -0.769507  -0.225800   1.159722   0.469675   2.296506   0.023174   1.263395  -0.018920   0.285360  -0.157088  -2.057998   0.535863   0.682787   0.146910   1.459161   0.278437  -2.185707   0.016273  -0.907996   0.016690   0.312196  -0.326986   1.940464  -2.664579  -0.260278   0.434906   1.007940  -0.001247  -0.003329  -0.338451  -0.403126  -0.156287   0.040218   0.000006  -0.000275  -2.494154   0.333093   0.404961   0.501818  -0.000457   0.000932  -1.548257   0.504834  -0.255094   0.714245   0.000988   0.004433
 -2.378030   0.926166   3.971900   3.774103  -0.307646  -0.606921  -3.771583   0.204265   0.247964   0.439590  -0.442364   0.332273  -0.383952   0.354498   0.074159   0.847691  -1.568942   0.141437   2.289536   0.946645   5.050236   0.052210   2.462853  -0.034624   0.623989  -0.021007  -3.470795   1.058380   1.432389  -0.266757   2.924146   0.584702  -4.826787   0.036025  -1.739995   0.029991   0.689244  -0.740253   3.262505  -5.305072  -0.550295   0.938842   1.921114  -0.002554  -0.005928  -0.656300  -0.784685  -0.305180   0.061541  -0.000002  -0.000368  -5.000358   0.643870   0.875792   0.865743  -0.000780   0.001327  -3.010046   0.992274  -0.476054   1.272924   0.001403   0.006708
 -2.378806   0.926819   3.969713   5.575064  -0.571311  -0.834755  -5.373414   0.319508   0.291985   0.705181  -0.617860   0.464842  -0.541219   0.513330   0.108071   1.246631  -2.332916   0.919670   3.383182   1.457188   8.110317   0.080485   3.575082  -0.045999   0.956495   0.135139  -4.236670   1.559178   2.175232  -1.072720   4.391290   0.857966  -7.780624   0.055030  -2.499038   0.039667   1.056683  -1.081738   3.962142  -7.838718  -0.841218   1.387560   2.734557  -0.003614  -0.008111  -0.955958  -1.139184  -0.445743   0.074533  -0.000009  -0.000390  -7.270022   0.931903   1.250573   1.499336  -0.001166   0.001539  -4.200901   1.460883  -0.691646   1.730751   0.001764   0.007482
 -2.379621   0.927433   3.967458   7.326120  -0.821814  -1.033982  -6.824032   0.412101   0.321499   0.982462  -0.788043   0.572847  -0.678321   0.660588   0.136397   1.633783  -3.047250   1.933360   4.439833   2.018379  11.372207   0.104817   4.608368  -0.053843   1.274026   0.275943  -4.512285   2.037856   2.864923  -2.117203   5.861299   1.052852 -10.954658   0.071481  -3.203014   0.046653   1.408078  -1.386484   4.177573 -10.265735  -1.139678   1.830665   3.465983  -0.004443  -0.009328  -1.238377  -1.470008  -0.578883   0.077594  -0.000010  -0.000333  -9.400180   1.178017   1.607033   1.954526  -0.001307   0.001521  -5.391967   1.897753  -0.875831   2.195660   0.002009   0.007916
 -2.380450   0.927928   3.965197   9.015811  -1.044768  -1.192452  -8.134764   0.485205   0.324185   1.267743  -0.958402   0.655619  -0.796697   0.797647   0.161293   2.009445  -3.704120   3.084760   5.456273   2.640576  14.769576   0.124221   5.571456  -0.058797   1.576959   0.408796  -4.460556   2.490964   3.485359  -3.302565   7.330049   1.148718 -14.279284   0.084861  -3.862988   0.051527   1.745627  -1.692495   4.068285 -12.564391  -1.438096   2.244488   4.130975  -0.005027  -0.009798  -1.503864  -1.778052  -0.704648   0.074957  -0.000005  -0.000250 -11.430932   1.393236   1.927518   2.324752  -0.001336   0.001470  -6.505042   2.309047  -1.040969   2.611806   0.002123   0.007965
 -2.381284   0.928285   3.963009  10.641961  -1.246201  -1.306375  -9.326505   0.545285   0.299176   1.552125  -1.126560   0.712823  -0.897404   0.925534   0.182925   2.371704  -4.303174   4.307032   6.428308   3.326457  18.258048   0.138654   6.470994  -0.061335   1.866519   0.541622  -4.196043   2.914676   4.037845  -4.562546   8.791739   1.140550 -17.706812   0.095125  -4.484631   0.054629   2.070396  -2.015906   3.748782 -14.726515  -1.732391   2.621359   4.740985  -0.005405  -0.009810  -1.752892  -2.064836  -0.823327   0.069976   0.000001  -0.000170 -13.370891   1.583192   2.205437   2.643389  -0.001306   0.001390  -7.534315   2.697231  -1.191733   2.990474   0.002155   0.007763
 -2.381841   0.927879   3.960920  11.596682  -1.429539  -1.227029  -9.910510   0.630929   0.141328   2.026296  -1.242649   0.718705  -1.077680   0.891821   0.137047   2.761002  -4.541912   4.816659   7.483771   4.063055  22.146417   0.149203   7.390522  -0.066496   2.201038   0.520183  -3.210299   3.121566   4.575226  -5.242760  10.229550   0.617718 -21.424611   0.103638  -5.145567   0.057688   2.355495  -2.192956   2.765068 -16.268150  -2.051035   2.780130   5.709059  -0.006434  -0.011502  -2.270777  -2.638826  -1.012486   0.079531  -0.000002  -0.000222 -15.380459   2.161737   2.300714   5.077616  -0.001956   0.010772  -9.410241   3.127415  -1.201190   2.913071   0.001750   0.005629
 -2.382277   0.926845   3.959394  12.329104  -1.737798  -1.058858 -10.443352   0.782887  -0.027141   2.537490  -1.292665   0.672265  -1.218054   0.856637   0.091141   3.100659  -4.688967   5.163162   8.448131   4.889061  25.853776   0.153591   8.269157  -0.068204   2.544440   0.584601  -2.201997   3.303182   5.050829  -5.835747  11.523206   0.019065 -24.867826   0.107653  -5.784834   0.058199   2.638426  -2.488355   1.697151 -17.570100  -2.345396   2.895727   6.705334  -0.007564  -0.014009  -2.752201  -3.177157  -1.194912   0.095388  -0.000009  -0.000332 -17.227799   2.742297   2.352614   7.679445  -0.001784   0.015673 -11.139112   3.545400  -1.208984   2.849326   0.001415   0.004108
 -2.382624   0.925357   3.958364  12.931948  -2.104880  -0.821526 -10.962340   0.955132  -0.209863   3.006474  -1.309038   0.600713  -1.344384   0.824186   0.044824   3.403130  -4.802618   5.456706   9.287894   5.724701  29.286684   0.152990   9.098816  -0.066571   2.878164   0.704579  -1.263100   3.472173   5.500315  -6.375399  12.692640  -0.601800 -28.058271   0.107687  -6.383700   0.056443   2.905505  -2.805017   0.691480 -18.719006  -2.622603   2.982300   7.665323  -0.008667  -0.016321  -3.201086  -3.679164  -1.369765   0.119621  -0.000024  -0.000507 -18.983921   3.289086   2.365654  10.153894  -0.001182   0.016756 -12.747090   3.940966  -1.212941   2.814130   0.001134   0.003110
 -2.382902   0.923468   3.957814  13.423285  -2.526321  -0.535678 -11.474808   1.141519  -0.390969   3.426838  -1.301294   0.516684  -1.463890   0.794406  -0.000535   3.679460  -4.909425   5.704153  10.023307   6.541133  32.466846   0.148640   9.874552  -0.062555   3.195638   0.834009  -0.407675   3.637941   5.942091  -6.868491  13.755409  -1.220257 -31.020554   0.104673  -6.938284   0.053137   3.153539  -3.095281  -0.250903 -19.739190  -2.881473   3.062503   8.578786  -0.009716  -0.018283  -3.620720  -4.146572  -1.536861   0.145765  -0.000046  -0.000670 -20.633757   3.804019   2.358469  12.547552  -0.000574   0.015239 -14.225641   4.311432  -1.210830   2.776280   0.000905   0.002341
 -2.383123   0.921181   3.957725  13.824301  -3.007796  -0.213657 -11.993111   1.339115  -0.559838   3.798392  -1.273690   0.428666  -1.579097   0.767209  -0.043901   3.938630  -5.022741   5.907657  10.672472   7.322901  35.413875   0.141634  10.595668  -0.057001   3.496288   0.947471   0.373171   3.808109   6.386002  -7.316708  14.727202  -1.821466 -33.773288   0.099459  -7.448306   0.048922   3.383762  -3.340683  -1.140819 -20.659038  -3.123636   3.149574   9.442886  -0.010677  -0.019925  -4.013311  -4.581511  -1.696142   0.171534  -0.000070  -0.000801 -22.134970   4.289817   2.341561  14.904931  -0.000240   0.011765 -15.576744   4.656188  -1.201966   2.735233   0.000721   0.001759
 -2.383299   0.918557   3.958012  14.152928  -3.524311   0.143017 -12.514911   1.534044  -0.719903   4.123695  -1.238317   0.339136  -1.692475   0.742057  -0.084924   4.186282  -5.147038   6.075075  11.249473   8.063340  38.147270   0.132923  11.263589  -0.050672   3.780842   1.032102   1.086986   3.983258   6.827719  -7.723505  15.617844  -2.401987 -36.330783   0.092832  -7.916683   0.044335   3.598521  -3.539179  -1.980828 -21.503481  -3.352042   3.236908  10.255048  -0.011504  -0.021096  -4.380567  -4.986523  -1.847872   0.197364  -0.000098  -0.000907 -23.494495   4.749842   2.306927  17.192579  -0.000231   0.007378 -16.824183   4.978168  -1.189348   2.701862   0.000574   0.001344
 -2.383309   0.916696   3.958455  14.496355  -4.016353   0.546705 -12.890482   1.627581  -0.762053   4.234701  -1.190398   0.150982  -1.875046   0.527832  -0.221421   4.324159  -5.222159   5.816661  11.720969   8.757984  40.398910   0.119063  11.850710  -0.043692   3.918583   1.182516   2.658585   4.072069   7.474149  -7.666814  16.375300  -2.991770 -38.568811   0.085109  -8.434695   0.039439   3.750047  -3.919827  -3.534351 -22.158245  -3.365135   3.269927  10.602251  -0.010317  -0.018460  -4.962133  -5.433206  -2.065970   0.344643  -0.000236  -0.002053 -24.237552   5.146960   2.150474  18.123920  -0.000212   0.004307 -16.787648   5.135405  -1.190056   2.959646   0.000451   0.001021
 -2.383395   0.915380   3.958672  14.919084  -4.412136   0.889092 -13.244863   1.678420  -0.717406   4.293022  -1.160781  -0.006253  -2.071045   0.316520  -0.352245   4.416122  -5.268648   5.273240  12.132978   9.403933  42.288456   0.104257  12.399211  -0.037774   4.039207   1.326646   3.972208   4.141609   8.063334  -7.359998  17.066679  -3.545000 -40.488226   0.075591  -8.920854   0.034766   3.876257  -4.347677  -4.881391 -22.817998  -3.376021   3.343394  10.857499  -0.009023  -0.015693  -5.514357  -5.847813  -2.275211   0.449838  -0.000305  -0.002464 -24.895337   5.504711   2.029593  18.695452  -0.000200   0.002803 -16.824667   5.275046  -1.179079   3.277717   0.000337   0.000866
